<mxfile host="app.diagrams.net" agent="Mozilla/5.0 (Windows NT 10.0; Win64; x64) AppleWebKit/537.36 (KHTML, like Gecko) Chrome/123.0.0.0 Safari/537.36" version="24.7.6">
  <diagram name="Page-1" id="c7558073-3199-34d8-9f00-42111426c3f3">
    <mxGraphModel dx="1050" dy="625" grid="0" gridSize="10" guides="1" tooltips="1" connect="1" arrows="1" fold="1" page="1" pageScale="1" pageWidth="826" pageHeight="1169" background="#00FFFF" math="0" shadow="1">
      <root>
        <mxCell id="0" />
        <mxCell id="1" parent="0" />
        <mxCell id="2" value="&lt;p style=&quot;text-decoration-line: underline; margin: 4px 0px 0px;&quot;&gt;&lt;strong&gt;&lt;font style=&quot;font-size: 14px;&quot;&gt;化学品B&lt;/font&gt;&lt;br&gt;&lt;/strong&gt;&lt;/p&gt;&lt;hr&gt;&lt;p style=&quot;margin: 0px 0px 0px 8px;&quot;&gt;上回更新：2017年&lt;/p&gt;" style="verticalAlign=middle;align=center;overflow=fill;fontSize=12;fontFamily=Helvetica;html=1;rounded=1;fontStyle=1;strokeWidth=3;fillColor=#E6FFCC" parent="1" vertex="1">
          <mxGeometry x="233.5" y="100" width="116.5" height="66" as="geometry" />
        </mxCell>
        <mxCell id="3" value="WM6523" style="whiteSpace=wrap;align=center;verticalAlign=middle;fontStyle=1;strokeWidth=3;fillColor=#FFFFCC" parent="1" vertex="1">
          <mxGeometry x="100" y="241" width="180" height="60" as="geometry" />
        </mxCell>
        <mxCell id="36" value="" style="edgeStyle=none;noEdgeStyle=1;strokeColor=#990000;strokeWidth=2;entryX=0.75;entryY=0;entryDx=0;entryDy=0;exitX=0.5;exitY=1;exitDx=0;exitDy=0;" parent="1" edge="1">
          <mxGeometry width="100" height="100" relative="1" as="geometry">
            <mxPoint x="287.38" y="166" as="sourcePoint" />
            <mxPoint x="230.63" y="241" as="targetPoint" />
          </mxGeometry>
        </mxCell>
        <mxCell id="53" value="示例" style="text;spacingTop=-5;align=center;fontFamily=Verdana;fontStyle=1;fillColor=#f5f5f5;strokeColor=#666666;fontColor=#333333;fontSize=14;" parent="1" vertex="1">
          <mxGeometry x="60" y="50" width="30" height="20" as="geometry" />
        </mxCell>
        <mxCell id="57" value="更&#xa;新&#xa;询&#xa;问" style="text;spacingTop=-5;align=center;horizontal=1;verticalAlign=top;fontColor=#0000FF;textShadow=1;fontStyle=3;fontSize=13;" parent="1" vertex="1">
          <mxGeometry x="102.5" y="368.5" width="30" height="61" as="geometry" />
        </mxCell>
        <mxCell id="59" value="" style="edgeStyle=elbowEdgeStyle;elbow=horizontal;strokeColor=#007FFF;strokeWidth=2;entryX=0.118;entryY=-0.024;entryDx=0;entryDy=0;entryPerimeter=0;" parent="1" source="5pL35t3zqdUJ_R4KpZhC-111" edge="1">
          <mxGeometry width="100" height="100" relative="1" as="geometry">
            <mxPoint x="130" y="364.97" as="sourcePoint" />
            <mxPoint x="131.83799999999997" y="437.02" as="targetPoint" />
            <Array as="points" />
          </mxGeometry>
        </mxCell>
        <mxCell id="81" value="" style="edgeStyle=elbowEdgeStyle;elbow=horizontal;exitX=1;exitY=0.5;strokeColor=#990000;strokeWidth=2;exitDx=0;exitDy=0;" parent="1" edge="1">
          <mxGeometry width="100" height="100" relative="1" as="geometry">
            <mxPoint x="356.75" y="738" as="sourcePoint" />
            <mxPoint x="490" y="830" as="targetPoint" />
            <Array as="points">
              <mxPoint x="540" y="723" />
            </Array>
          </mxGeometry>
        </mxCell>
        <mxCell id="5pL35t3zqdUJ_R4KpZhC-162" value="&lt;font style=&quot;font-size: 13px;&quot;&gt;通知各科更新&lt;/font&gt;" style="edgeLabel;html=1;align=center;verticalAlign=middle;resizable=0;points=[];" parent="81" vertex="1" connectable="0">
          <mxGeometry x="-0.5543" y="-1" relative="1" as="geometry">
            <mxPoint as="offset" />
          </mxGeometry>
        </mxCell>
        <mxCell id="5pL35t3zqdUJ_R4KpZhC-96" value="&lt;p style=&quot;margin: 0px; margin-top: 4px; text-align: center; text-decoration: underline;&quot;&gt;&lt;strong&gt;&lt;font style=&quot;font-size: 15px;&quot;&gt;化学品A&lt;/font&gt;&lt;br&gt;&lt;/strong&gt;&lt;/p&gt;&lt;hr&gt;&lt;p style=&quot;margin: 0px; margin-left: 8px;&quot;&gt;上回更新：2016年&lt;/p&gt;" style="verticalAlign=middle;align=center;overflow=fill;fontSize=12;fontFamily=Helvetica;html=1;rounded=1;fontStyle=1;strokeWidth=3;fillColor=#E6FFCC" parent="1" vertex="1">
          <mxGeometry x="60" y="100" width="120" height="66" as="geometry" />
        </mxCell>
        <mxCell id="5pL35t3zqdUJ_R4KpZhC-98" value="" style="edgeStyle=none;noEdgeStyle=1;strokeColor=#990000;strokeWidth=2;" parent="1" edge="1">
          <mxGeometry width="100" height="100" relative="1" as="geometry">
            <mxPoint x="121.81012658227837" y="166" as="sourcePoint" />
            <mxPoint x="150" y="240" as="targetPoint" />
          </mxGeometry>
        </mxCell>
        <mxCell id="5pL35t3zqdUJ_R4KpZhC-102" value="反&#xa;馈&#xa;更&#xa;新" style="text;spacingTop=-5;align=center;fontColor=#FF0000;" parent="1" vertex="1">
          <mxGeometry x="161" y="370.5" width="30" height="37" as="geometry" />
        </mxCell>
        <mxCell id="5pL35t3zqdUJ_R4KpZhC-103" value="&lt;p style=&quot;text-decoration-line: underline; margin: 4px 0px 0px;&quot;&gt;&lt;strong&gt;&lt;font style=&quot;font-size: 14px;&quot;&gt;化学品C&lt;/font&gt;&lt;br&gt;&lt;/strong&gt;&lt;/p&gt;&lt;hr&gt;&lt;p style=&quot;margin: 0px 0px 0px 8px;&quot;&gt;上回更新：2018年&lt;/p&gt;" style="verticalAlign=middle;align=center;overflow=fill;fontSize=12;fontFamily=Helvetica;html=1;rounded=1;fontStyle=1;strokeWidth=3;fillColor=#E6FFCC" parent="1" vertex="1">
          <mxGeometry x="401" y="100" width="119" height="66" as="geometry" />
        </mxCell>
        <mxCell id="5pL35t3zqdUJ_R4KpZhC-107" value="" style="edgeStyle=none;noEdgeStyle=1;strokeColor=#990000;strokeWidth=2;exitX=0.609;exitY=1.009;exitDx=0;exitDy=0;exitPerimeter=0;" parent="1" source="2" edge="1">
          <mxGeometry width="100" height="100" relative="1" as="geometry">
            <mxPoint x="300" y="170" as="sourcePoint" />
            <mxPoint x="360" y="240" as="targetPoint" />
          </mxGeometry>
        </mxCell>
        <mxCell id="5pL35t3zqdUJ_R4KpZhC-108" value="" style="edgeStyle=none;noEdgeStyle=1;strokeColor=#990000;strokeWidth=2;entryX=0.75;entryY=0;entryDx=0;entryDy=0;" parent="1" edge="1">
          <mxGeometry width="100" height="100" relative="1" as="geometry">
            <mxPoint x="460.00012658227837" y="166" as="sourcePoint" />
            <mxPoint x="401" y="241" as="targetPoint" />
          </mxGeometry>
        </mxCell>
        <mxCell id="5pL35t3zqdUJ_R4KpZhC-111" value="&lt;p style=&quot;margin: 0px; margin-top: 4px; text-align: center; text-decoration: underline;&quot;&gt;&lt;strong&gt;&lt;font style=&quot;font-size: 15px;&quot;&gt;化学品A&lt;/font&gt;&lt;br&gt;&lt;/strong&gt;&lt;/p&gt;&lt;hr&gt;&lt;p style=&quot;margin: 0px; margin-left: 8px;&quot;&gt;&lt;font color=&quot;#00cc66&quot;&gt;2021年&lt;/font&gt;&lt;/p&gt;" style="verticalAlign=middle;align=center;overflow=fill;fontSize=12;fontFamily=Helvetica;html=1;rounded=1;fontStyle=1;strokeWidth=3;fillColor=#E6FFCC" parent="1" vertex="1">
          <mxGeometry x="102.5" y="305" width="85" height="56" as="geometry" />
        </mxCell>
        <mxCell id="5pL35t3zqdUJ_R4KpZhC-114" value="&lt;p style=&quot;margin: 0px; margin-top: 4px; text-align: center; text-decoration: underline;&quot;&gt;&lt;strong&gt;&lt;font style=&quot;font-size: 15px;&quot;&gt;化学品B&lt;/font&gt;&lt;br&gt;&lt;/strong&gt;&lt;/p&gt;&lt;hr&gt;&lt;p style=&quot;margin: 0px; margin-left: 8px;&quot;&gt;&lt;font color=&quot;#00cc66&quot;&gt;2022年&lt;/font&gt;&lt;/p&gt;" style="verticalAlign=middle;align=center;overflow=fill;fontSize=12;fontFamily=Helvetica;html=1;rounded=1;fontStyle=1;strokeWidth=3;fillColor=#E6FFCC" parent="1" vertex="1">
          <mxGeometry x="191" y="305" width="85" height="56" as="geometry" />
        </mxCell>
        <mxCell id="5pL35t3zqdUJ_R4KpZhC-117" value="" style="edgeStyle=elbowEdgeStyle;elbow=horizontal;strokeColor=#007FFF;strokeWidth=2;entryX=0.37;entryY=0.008;entryDx=0;entryDy=0;entryPerimeter=0;" parent="1" source="5pL35t3zqdUJ_R4KpZhC-114" edge="1">
          <mxGeometry width="100" height="100" relative="1" as="geometry">
            <mxPoint x="220.13" y="365.05" as="sourcePoint" />
            <mxPoint x="218.17000000000007" y="440.4000000000001" as="targetPoint" />
            <Array as="points" />
          </mxGeometry>
        </mxCell>
        <mxCell id="5pL35t3zqdUJ_R4KpZhC-122" value="WM6524" style="whiteSpace=wrap;align=center;verticalAlign=middle;fontStyle=1;strokeWidth=3;fillColor=#FFFFCC" parent="1" vertex="1">
          <mxGeometry x="298.5" y="241" width="180" height="60" as="geometry" />
        </mxCell>
        <mxCell id="5pL35t3zqdUJ_R4KpZhC-123" value="&lt;p style=&quot;margin: 0px; margin-top: 4px; text-align: center; text-decoration: underline;&quot;&gt;&lt;strong&gt;&lt;font style=&quot;font-size: 15px;&quot;&gt;化学品B&lt;/font&gt;&lt;br&gt;&lt;/strong&gt;&lt;/p&gt;&lt;hr&gt;&lt;p style=&quot;margin: 0px; margin-left: 8px;&quot;&gt;&lt;font color=&quot;#ff0000&quot;&gt;2023年&lt;/font&gt;&lt;/p&gt;" style="verticalAlign=middle;align=center;overflow=fill;fontSize=12;fontFamily=Helvetica;html=1;rounded=1;fontStyle=1;strokeWidth=3;fillColor=#E6FFCC" parent="1" vertex="1">
          <mxGeometry x="301.75" y="305" width="85" height="56" as="geometry" />
        </mxCell>
        <mxCell id="5pL35t3zqdUJ_R4KpZhC-124" value="&lt;p style=&quot;margin: 0px; margin-top: 4px; text-align: center; text-decoration: underline;&quot;&gt;&lt;strong&gt;&lt;font style=&quot;font-size: 15px;&quot;&gt;化学品C&lt;/font&gt;&lt;br&gt;&lt;/strong&gt;&lt;/p&gt;&lt;hr&gt;&lt;p style=&quot;margin: 0px; margin-left: 8px;&quot;&gt;&lt;font color=&quot;#00cc66&quot;&gt;2023年&lt;/font&gt;&lt;/p&gt;" style="verticalAlign=middle;align=center;overflow=fill;fontSize=12;fontFamily=Helvetica;html=1;rounded=1;fontStyle=1;strokeWidth=3;fillColor=#E6FFCC" parent="1" vertex="1">
          <mxGeometry x="390.25" y="305" width="85" height="56" as="geometry" />
        </mxCell>
        <mxCell id="5pL35t3zqdUJ_R4KpZhC-128" value="" style="edgeStyle=elbowEdgeStyle;elbow=horizontal;strokeColor=#007FFF;strokeWidth=2;" parent="1" edge="1">
          <mxGeometry width="100" height="100" relative="1" as="geometry">
            <mxPoint x="417" y="361" as="sourcePoint" />
            <mxPoint x="417.1300000000001" y="440" as="targetPoint" />
            <Array as="points">
              <mxPoint x="417.13" y="449.05" />
            </Array>
          </mxGeometry>
        </mxCell>
        <mxCell id="5pL35t3zqdUJ_R4KpZhC-130" value="过期" style="sketch=0;outlineConnect=0;fontColor=#FF0000;gradientColor=#33FF33;fillColor=#FF0000;strokeColor=none;dashed=0;verticalLabelPosition=bottom;verticalAlign=top;align=center;html=1;fontSize=12;fontStyle=0;aspect=fixed;pointerEvents=1;shape=mxgraph.aws4.checklist_fault_tolerant;strokeWidth=11;perimeterSpacing=2;" parent="1" vertex="1">
          <mxGeometry x="323.39" y="365.5" width="47.61" height="47" as="geometry" />
        </mxCell>
        <mxCell id="5pL35t3zqdUJ_R4KpZhC-131" value="" style="edgeStyle=elbowEdgeStyle;elbow=horizontal;strokeColor=#007FFF;strokeWidth=2;entryX=0.558;entryY=0;entryDx=0;entryDy=0;entryPerimeter=0;" parent="1" edge="1">
          <mxGeometry width="100" height="100" relative="1" as="geometry">
            <mxPoint x="320" y="363.02" as="sourcePoint" />
            <mxPoint x="319.87800000000016" y="440" as="targetPoint" />
            <Array as="points">
              <mxPoint x="320.13" y="451.07" />
            </Array>
          </mxGeometry>
        </mxCell>
        <mxCell id="5pL35t3zqdUJ_R4KpZhC-133" value="" style="edgeStyle=none;noEdgeStyle=1;strokeColor=#990000;strokeWidth=2;entryX=0.75;entryY=0;entryDx=0;entryDy=0;" parent="1" edge="1">
          <mxGeometry width="100" height="100" relative="1" as="geometry">
            <mxPoint x="457" y="440" as="sourcePoint" />
            <mxPoint x="456.5" y="361" as="targetPoint" />
          </mxGeometry>
        </mxCell>
        <mxCell id="5pL35t3zqdUJ_R4KpZhC-134" value="" style="edgeStyle=none;noEdgeStyle=1;strokeColor=#FF0000;strokeWidth=2;entryX=0.75;entryY=0;entryDx=0;entryDy=0;" parent="1" edge="1">
          <mxGeometry width="100" height="100" relative="1" as="geometry">
            <mxPoint x="371.5" y="440.5" as="sourcePoint" />
            <mxPoint x="371" y="361.5" as="targetPoint" />
          </mxGeometry>
        </mxCell>
        <mxCell id="5pL35t3zqdUJ_R4KpZhC-135" value="" style="edgeStyle=none;noEdgeStyle=1;strokeColor=#FF0000;strokeWidth=2;entryX=0.75;entryY=0;entryDx=0;entryDy=0;" parent="1" edge="1">
          <mxGeometry width="100" height="100" relative="1" as="geometry">
            <mxPoint x="457" y="440" as="sourcePoint" />
            <mxPoint x="456.5" y="361" as="targetPoint" />
          </mxGeometry>
        </mxCell>
        <mxCell id="5pL35t3zqdUJ_R4KpZhC-136" value="" style="edgeStyle=none;noEdgeStyle=1;strokeColor=#FF0000;strokeWidth=2;entryX=0.75;entryY=0;entryDx=0;entryDy=0;" parent="1" edge="1">
          <mxGeometry width="100" height="100" relative="1" as="geometry">
            <mxPoint x="251.5" y="438.5" as="sourcePoint" />
            <mxPoint x="251" y="359.5" as="targetPoint" />
          </mxGeometry>
        </mxCell>
        <mxCell id="5pL35t3zqdUJ_R4KpZhC-137" value="" style="edgeStyle=none;noEdgeStyle=1;strokeColor=#FF0000;strokeWidth=2;entryX=0.75;entryY=0;entryDx=0;entryDy=0;" parent="1" edge="1">
          <mxGeometry width="100" height="100" relative="1" as="geometry">
            <mxPoint x="167" y="440" as="sourcePoint" />
            <mxPoint x="167" y="359.5" as="targetPoint" />
          </mxGeometry>
        </mxCell>
        <mxCell id="5pL35t3zqdUJ_R4KpZhC-142" value="&lt;p style=&quot;margin: 0px; margin-top: 4px; text-align: center; text-decoration: underline;&quot;&gt;&lt;strong&gt;&lt;font style=&quot;font-size: 15px;&quot;&gt;化学品A&lt;/font&gt;&lt;br&gt;&lt;/strong&gt;&lt;/p&gt;&lt;hr&gt;&lt;p style=&quot;margin: 0px; margin-left: 8px;&quot;&gt;上回更新：2016年&lt;/p&gt;" style="verticalAlign=middle;align=center;overflow=fill;fontSize=12;fontFamily=Helvetica;html=1;rounded=1;fontStyle=1;strokeWidth=3;fillColor=#E6FFCC" parent="1" vertex="1">
          <mxGeometry x="60" y="510" width="120" height="80" as="geometry" />
        </mxCell>
        <mxCell id="5pL35t3zqdUJ_R4KpZhC-143" value="&lt;p style=&quot;text-decoration-line: underline; margin: 4px 0px 0px;&quot;&gt;&lt;strong&gt;&lt;font style=&quot;font-size: 14px;&quot;&gt;化学品B&lt;/font&gt;&lt;br&gt;&lt;/strong&gt;&lt;/p&gt;&lt;hr&gt;&lt;p style=&quot;margin: 0px 0px 0px 8px;&quot;&gt;上回更新：2017年&lt;/p&gt;" style="verticalAlign=middle;align=center;overflow=fill;fontSize=12;fontFamily=Helvetica;html=1;rounded=1;fontStyle=1;strokeWidth=3;fillColor=#E6FFCC" parent="1" vertex="1">
          <mxGeometry x="233.5" y="510" width="116.5" height="80" as="geometry" />
        </mxCell>
        <mxCell id="5pL35t3zqdUJ_R4KpZhC-144" value="&lt;p style=&quot;text-decoration-line: underline; margin: 4px 0px 0px;&quot;&gt;&lt;strong&gt;&lt;font style=&quot;font-size: 14px;&quot;&gt;化学品C&lt;/font&gt;&lt;br&gt;&lt;/strong&gt;&lt;/p&gt;&lt;hr&gt;&lt;p style=&quot;margin: 0px 0px 0px 8px;&quot;&gt;上回更新：2018年&lt;/p&gt;" style="verticalAlign=middle;align=center;overflow=fill;fontSize=12;fontFamily=Helvetica;html=1;rounded=1;fontStyle=1;strokeWidth=3;fillColor=#E6FFCC" parent="1" vertex="1">
          <mxGeometry x="401" y="510" width="119" height="80" as="geometry" />
        </mxCell>
        <mxCell id="5pL35t3zqdUJ_R4KpZhC-148" value="Public Folder" style="points=[[0,0],[0.25,0],[0.5,0],[0.75,0],[1,0],[1,0.25],[1,0.5],[1,0.75],[1,1],[0.75,1],[0.5,1],[0.25,1],[0,1],[0,0.75],[0,0.5],[0,0.25]];outlineConnect=0;gradientColor=none;html=1;whiteSpace=wrap;fontSize=12;fontStyle=0;container=1;pointerEvents=0;collapsible=0;recursiveResize=0;shape=mxgraph.aws4.group;grIcon=mxgraph.aws4.group_security_group;grStroke=0;strokeColor=#7AA116;fillColor=#F2F6E8;verticalAlign=top;align=left;spacingLeft=30;fontColor=#248814;dashed=0;strokeWidth=3;" parent="1" vertex="1">
          <mxGeometry x="226.75" y="670" width="130" height="130" as="geometry" />
        </mxCell>
        <mxCell id="5pL35t3zqdUJ_R4KpZhC-156" value="&lt;div style=&quot;font-size: 11px;&quot;&gt;&lt;font style=&quot;font-size: 11px;&quot;&gt;统一管理&lt;/font&gt;&lt;/div&gt;&lt;div style=&quot;font-size: 11px;&quot;&gt;&lt;font style=&quot;font-size: 11px;&quot;&gt;&lt;br&gt;&lt;/font&gt;&lt;/div&gt;&lt;div style=&quot;font-size: 11px;&quot;&gt;&lt;font style=&quot;font-size: 11px;&quot;&gt;定期更新&lt;/font&gt;&lt;/div&gt;&lt;div style=&quot;font-size: 11px;&quot;&gt;&lt;font style=&quot;font-size: 11px;&quot;&gt;&lt;br&gt;&lt;/font&gt;&lt;/div&gt;&lt;div style=&quot;font-size: 11px;&quot;&gt;&lt;font style=&quot;font-size: 11px;&quot;&gt;存入共通文件夹&lt;/font&gt;&lt;/div&gt;" style="text;html=1;align=center;verticalAlign=middle;resizable=0;points=[];autosize=1;strokeColor=none;fillColor=none;" parent="5pL35t3zqdUJ_R4KpZhC-148" vertex="1">
          <mxGeometry x="15" y="35" width="100" height="80" as="geometry" />
        </mxCell>
        <mxCell id="5pL35t3zqdUJ_R4KpZhC-157" value="WM6523" style="whiteSpace=wrap;align=center;verticalAlign=middle;fontStyle=1;strokeWidth=3;fillColor=#FFFFCC" parent="1" vertex="1">
          <mxGeometry x="109.25" y="800" width="180" height="60" as="geometry" />
        </mxCell>
        <mxCell id="5pL35t3zqdUJ_R4KpZhC-158" value="WM6524" style="whiteSpace=wrap;align=center;verticalAlign=middle;fontStyle=1;strokeWidth=3;fillColor=#FFFFCC" parent="1" vertex="1">
          <mxGeometry x="307.75" y="800" width="180" height="60" as="geometry" />
        </mxCell>
        <mxCell id="5pL35t3zqdUJ_R4KpZhC-159" value="" style="edgeStyle=elbowEdgeStyle;elbow=horizontal;strokeColor=#990000;strokeWidth=2;entryX=0;entryY=0.5;entryDx=0;entryDy=0;" parent="1" target="5pL35t3zqdUJ_R4KpZhC-157" edge="1">
          <mxGeometry width="100" height="100" relative="1" as="geometry">
            <mxPoint x="226.75" y="738" as="sourcePoint" />
            <mxPoint x="106" y="858" as="targetPoint" />
            <Array as="points">
              <mxPoint x="46.75" y="798" />
            </Array>
          </mxGeometry>
        </mxCell>
        <mxCell id="5pL35t3zqdUJ_R4KpZhC-161" value="&lt;font style=&quot;font-size: 13px;&quot;&gt;通知各科更新&lt;/font&gt;" style="edgeLabel;html=1;align=center;verticalAlign=middle;resizable=0;points=[];" parent="5pL35t3zqdUJ_R4KpZhC-159" vertex="1" connectable="0">
          <mxGeometry x="-0.5858" y="2" relative="1" as="geometry">
            <mxPoint as="offset" />
          </mxGeometry>
        </mxCell>
        <mxCell id="5pL35t3zqdUJ_R4KpZhC-163" value="" style="edgeStyle=elbowEdgeStyle;elbow=horizontal;exitX=1;exitY=0.5;strokeColor=#0000CC;strokeWidth=2;exitDx=0;exitDy=0;" parent="1" edge="1">
          <mxGeometry width="100" height="100" relative="1" as="geometry">
            <mxPoint x="559" y="485" as="sourcePoint" />
            <mxPoint x="730" y="535" as="targetPoint" />
            <Array as="points">
              <mxPoint x="730" y="545" />
            </Array>
          </mxGeometry>
        </mxCell>
        <mxCell id="5pL35t3zqdUJ_R4KpZhC-164" value="&lt;i style=&quot;&quot;&gt;&lt;b style=&quot;&quot;&gt;&lt;font style=&quot;font-size: 16px;&quot; color=&quot;#0000ff&quot;&gt;统一管理&lt;/font&gt;&lt;/b&gt;&lt;/i&gt;" style="edgeLabel;html=1;align=center;verticalAlign=middle;resizable=0;points=[];" parent="5pL35t3zqdUJ_R4KpZhC-163" vertex="1" connectable="0">
          <mxGeometry x="-0.5543" y="-1" relative="1" as="geometry">
            <mxPoint x="6" y="-2" as="offset" />
          </mxGeometry>
        </mxCell>
        <mxCell id="5pL35t3zqdUJ_R4KpZhC-165" value="" style="edgeStyle=elbowEdgeStyle;elbow=horizontal;exitX=1;exitY=0.5;strokeColor=#FF0000;strokeWidth=2;exitDx=0;exitDy=0;" parent="1" edge="1">
          <mxGeometry width="100" height="100" relative="1" as="geometry">
            <mxPoint x="561" y="455" as="sourcePoint" />
            <mxPoint x="732" y="405" as="targetPoint" />
            <Array as="points">
              <mxPoint x="732" y="455.5" />
            </Array>
          </mxGeometry>
        </mxCell>
        <mxCell id="5pL35t3zqdUJ_R4KpZhC-167" value="&lt;font size=&quot;1&quot; color=&quot;#ff0000&quot;&gt;&lt;b&gt;&lt;i style=&quot;font-size: 16px;&quot;&gt;各科管理&lt;/i&gt;&lt;/b&gt;&lt;/font&gt;" style="edgeLabel;html=1;align=center;verticalAlign=middle;resizable=0;points=[];" parent="5pL35t3zqdUJ_R4KpZhC-165" vertex="1" connectable="0">
          <mxGeometry x="-0.5182" relative="1" as="geometry">
            <mxPoint as="offset" />
          </mxGeometry>
        </mxCell>
        <mxCell id="5pL35t3zqdUJ_R4KpZhC-186" style="edgeStyle=orthogonalEdgeStyle;rounded=0;orthogonalLoop=1;jettySize=auto;html=1;exitX=0.1;exitY=0.5;exitDx=0;exitDy=0;exitPerimeter=0;entryX=0.5;entryY=0;entryDx=0;entryDy=0;" parent="1" source="5pL35t3zqdUJ_R4KpZhC-181" target="5pL35t3zqdUJ_R4KpZhC-148" edge="1">
          <mxGeometry relative="1" as="geometry" />
        </mxCell>
        <mxCell id="5pL35t3zqdUJ_R4KpZhC-181" value="" style="shape=curlyBracket;whiteSpace=wrap;html=1;rounded=1;flipH=1;labelPosition=right;verticalLabelPosition=middle;align=left;verticalAlign=middle;rotation=90;size=0.225;" parent="1" vertex="1">
          <mxGeometry x="255.25" y="452.5" width="73" height="347.5" as="geometry" />
        </mxCell>
        <mxCell id="5pL35t3zqdUJ_R4KpZhC-187" value="&lt;div style=&quot;text-align: left;&quot;&gt;&lt;span style=&quot;background-color: initial;&quot;&gt;UP Date &lt;u&gt;2021&lt;/u&gt;&lt;/span&gt;&lt;/div&gt;" style="points=[[0,0],[0.25,0],[0.5,0],[0.75,0],[1,0],[1,0.25],[1,0.5],[1,0.75],[1,1],[0.75,1],[0.5,1],[0.25,1],[0,1],[0,0.75],[0,0.5],[0,0.25]];outlineConnect=0;gradientColor=none;html=1;whiteSpace=wrap;fontSize=12;fontStyle=0;container=1;pointerEvents=0;collapsible=0;recursiveResize=0;shape=mxgraph.aws4.group;grIcon=mxgraph.aws4.group_iot_greengrass_deployment;strokeColor=#7AA116;fillColor=none;verticalAlign=top;align=center;spacingLeft=30;fontColor=#3F8624;dashed=0;" parent="1" vertex="1">
          <mxGeometry x="29.25" y="600" width="80" height="40" as="geometry" />
        </mxCell>
        <mxCell id="5pL35t3zqdUJ_R4KpZhC-192" value="&lt;div style=&quot;text-align: left;&quot;&gt;&lt;span style=&quot;background-color: initial;&quot;&gt;UP Date &lt;u&gt;2022&lt;/u&gt;&lt;/span&gt;&lt;/div&gt;" style="points=[[0,0],[0.25,0],[0.5,0],[0.75,0],[1,0],[1,0.25],[1,0.5],[1,0.75],[1,1],[0.75,1],[0.5,1],[0.25,1],[0,1],[0,0.75],[0,0.5],[0,0.25]];outlineConnect=0;gradientColor=none;html=1;whiteSpace=wrap;fontSize=12;fontStyle=0;container=1;pointerEvents=0;collapsible=0;recursiveResize=0;shape=mxgraph.aws4.group;grIcon=mxgraph.aws4.group_iot_greengrass_deployment;strokeColor=#7AA116;fillColor=none;verticalAlign=top;align=center;spacingLeft=30;fontColor=#3F8624;dashed=0;" parent="1" vertex="1">
          <mxGeometry x="255.25" y="600" width="80" height="40" as="geometry" />
        </mxCell>
        <mxCell id="5pL35t3zqdUJ_R4KpZhC-193" value="&lt;div style=&quot;text-align: left;&quot;&gt;&lt;span style=&quot;background-color: initial;&quot;&gt;UP Date &lt;u&gt;2023&lt;/u&gt;&lt;/span&gt;&lt;/div&gt;" style="points=[[0,0],[0.25,0],[0.5,0],[0.75,0],[1,0],[1,0.25],[1,0.5],[1,0.75],[1,1],[0.75,1],[0.5,1],[0.25,1],[0,1],[0,0.75],[0,0.5],[0,0.25]];outlineConnect=0;gradientColor=none;html=1;whiteSpace=wrap;fontSize=12;fontStyle=0;container=1;pointerEvents=0;collapsible=0;recursiveResize=0;shape=mxgraph.aws4.group;grIcon=mxgraph.aws4.group_iot_greengrass_deployment;strokeColor=#7AA116;fillColor=none;verticalAlign=top;align=center;spacingLeft=30;fontColor=#3F8624;dashed=0;" parent="1" vertex="1">
          <mxGeometry x="479" y="600" width="80" height="40" as="geometry" />
        </mxCell>
        <mxCell id="g7jv2d-DB9cVS-sKKvvU-84" value="" style="rounded=0;whiteSpace=wrap;html=1;fillColor=#FFCCE6;fillStyle=cross-hatch;strokeColor=#d6b656;" vertex="1" parent="1">
          <mxGeometry x="298" y="301" width="91" height="140" as="geometry" />
        </mxCell>
        <mxCell id="g7jv2d-DB9cVS-sKKvvU-87" value="&lt;p style=&quot;margin:0px;margin-top:4px;text-align:center;&quot;&gt;&lt;b&gt;主管部门&lt;/b&gt;&lt;/p&gt;&lt;hr size=&quot;1&quot; style=&quot;border-style:solid;&quot;&gt;&lt;div style=&quot;text-align: center; height: 2px;&quot;&gt;&lt;font face=&quot;Comic Sans MS&quot;&gt;&lt;b style=&quot;background-color: rgb(204, 153, 255);&quot;&gt;WM1E15 ?&amp;nbsp; WM****&amp;nbsp; &amp;nbsp;&amp;nbsp;&lt;/b&gt;&lt;/font&gt;&lt;/div&gt;" style="verticalAlign=top;align=left;overflow=fill;html=1;whiteSpace=wrap;sketch=1;hachureGap=4;jiggle=2;curveFitting=1;fontFamily=Architects Daughter;fontSource=https%3A%2F%2Ffonts.googleapis.com%2Fcss%3Ffamily%3DArchitects%2BDaughter;fillColor=#FFFF99;strokeColor=#d6b656;fillStyle=solid;" vertex="1" parent="1">
          <mxGeometry x="24.75" y="441" width="534" height="60" as="geometry" />
        </mxCell>
      </root>
    </mxGraphModel>
  </diagram>
</mxfile>
